<svg width="382" height="113" viewBox="0 0 382 113" fill="none" xmlns="http://www.w3.org/2000/svg">
<path d="M76.413 6.5C72.0369 41.942 74.506 63.6938 76.413 86.5696C85.7708 87.4471 95.1265 88.042 104.459 88.3141C104.912 88.8345 104.874 89.5933 104.049 90.6909C103.95 90.823 103.839 90.9531 103.738 91.0863C102.186 93.1331 101.259 95.5076 101.259 97.5892C101.259 102.511 106.438 106.5 112.826 106.5C119.214 106.5 124.393 102.511 124.393 97.5892C124.393 95.2829 123.209 92.8287 121.315 90.7729C121.215 90.6641 121.103 90.5594 121.009 90.4499C120.313 89.6389 119.943 88.9768 119.912 88.4608C130.828 88.3402 141.695 87.7358 152.479 86.5696C151.705 76.7573 151.085 66.8889 150.776 56.9074C150.671 57.0756 150.631 57.0137 150.71 56.6236C150.73 56.5255 150.743 56.4375 150.76 56.3433C150.731 55.3793 150.705 54.4141 150.683 53.4479C150.208 52.5403 149.052 52.5625 147.196 53.4507C147.073 53.51 146.955 53.5809 146.831 53.6442C144.504 54.842 141.741 55.5614 139.162 55.5038C133.657 55.3807 129.271 51.8657 129.365 47.6522C129.459 43.4388 133.998 40.1227 139.503 40.2457C141.831 40.2976 144.473 40.9679 146.74 42.0432C146.887 42.1132 147.031 42.1893 147.177 42.2581C149.045 43.1366 150.043 42.7667 150.566 41.8683C150.614 30.2936 151.172 18.5334 152.479 6.50069L76.413 6.5Z" fill="#FFBF1D"/>
<path d="M0.520752 6.5V86.5696C11.0753 87.5593 21.5972 88.1868 32.0811 88.3988C33.2573 88.7442 33.8844 89.5384 32.9358 91.2564C32.8703 91.375 32.7972 91.4922 32.7305 91.6118C31.7062 93.4502 31.0948 95.5825 31.0948 97.4522C31.0948 101.872 34.5114 105.455 38.7259 105.455C42.9405 105.455 46.3571 101.872 46.3571 97.4522C46.3571 95.3807 45.5762 93.1766 44.3267 91.3301C44.2606 91.2324 44.1862 91.1386 44.1242 91.0401C43.3379 89.7928 43.1835 88.9373 43.6986 88.4629C54.6504 88.348 65.5576 87.7436 76.4132 86.5696C75.5723 75.9123 74.9191 65.1866 74.6432 54.324C75.105 54.274 75.6872 54.437 76.4194 54.8853C76.5509 54.9658 76.6801 55.0554 76.8127 55.1374C78.8513 56.3969 81.2209 57.1549 83.3026 57.1629C88.2239 57.184 92.2407 53.029 92.2746 47.883C92.3085 42.7369 88.3464 38.5483 83.4251 38.5273C81.1188 38.5179 78.6588 39.4602 76.593 40.9771C76.4837 41.0573 76.3786 41.1477 76.2686 41.223C75.568 41.7021 74.9788 41.9862 74.4992 42.0715C74.5409 30.4311 75.0984 18.6034 76.4132 6.5H0.520752Z" fill="#58B9FF"/>
<path d="M43.9829 77.0433C33.4756 77.0433 25.4599 74.4616 19.936 69.2979C14.4121 64.1342 11.6501 56.8391 11.6501 47.4125C11.6501 37.6856 14.352 30.2404 19.7559 25.0767C25.1597 19.8531 33.2054 17.2412 43.8929 17.2412C47.4954 17.2412 50.7076 17.5114 53.5296 18.0518C56.3517 18.5922 59.0536 19.3427 61.6354 20.3034V35.0738C56.4717 32.7922 50.9479 31.6514 45.0637 31.6514C39.5999 31.6514 35.547 32.9123 32.9051 35.434C30.2632 37.8958 28.9423 41.8885 28.9423 47.4125C28.9423 52.8163 30.3234 56.7191 33.0852 59.1207C35.9073 61.4624 39.9601 62.6332 45.2438 62.6332C48.1258 62.6332 50.9178 62.363 53.6197 61.8226C56.3816 61.2822 59.1136 60.4416 61.8155 59.3009V74.1613C59.2337 75.062 56.5017 75.7524 53.6197 76.2328C50.7977 76.7732 47.5855 77.0433 43.9829 77.0433Z" fill="#FEFEFE"/>
<path d="M103.81 77.3431V30.5973H87.0227V17.6123H138.035V30.5973H121.247V77.3431H103.81Z" fill="#FEFEFE"/>
<path d="M211.759 49.45C206.509 49.45 202.504 48.16 199.744 45.58C196.984 43 195.604 39.355 195.604 34.645C195.604 29.785 196.954 26.065 199.654 23.485C202.354 20.875 206.374 19.57 211.714 19.57C213.514 19.57 215.119 19.705 216.529 19.975C217.939 20.245 219.289 20.62 220.579 21.1V28.48C217.999 27.34 215.239 26.77 212.299 26.77C209.569 26.77 207.544 27.4 206.224 28.66C204.904 29.89 204.244 31.885 204.244 34.645C204.244 37.345 204.934 39.295 206.314 40.495C207.724 41.665 209.749 42.25 212.389 42.25C213.829 42.25 215.224 42.115 216.574 41.845C217.954 41.575 219.319 41.155 220.669 40.585V48.01C219.379 48.46 218.014 48.805 216.574 49.045C215.164 49.315 213.559 49.45 211.759 49.45ZM235.403 49.45C231.143 49.45 227.993 48.505 225.953 46.615C223.943 44.725 222.938 41.965 222.938 38.335C222.938 34.735 223.958 31.99 225.998 30.1C228.038 28.18 231.173 27.22 235.403 27.22C239.663 27.22 242.813 28.18 244.853 30.1C246.923 31.99 247.958 34.735 247.958 38.335C247.958 41.965 246.938 44.725 244.898 46.615C242.858 48.505 239.693 49.45 235.403 49.45ZM235.403 43.285C236.783 43.285 237.773 42.895 238.373 42.115C239.003 41.335 239.318 40.075 239.318 38.335C239.318 36.625 239.003 35.38 238.373 34.6C237.773 33.79 236.783 33.385 235.403 33.385C234.053 33.385 233.078 33.79 232.478 34.6C231.878 35.38 231.578 36.625 231.578 38.335C231.578 40.075 231.878 41.335 232.478 42.115C233.078 42.895 234.053 43.285 235.403 43.285ZM260.173 49.45C258.163 49.45 256.408 49.12 254.908 48.46C253.438 47.77 252.283 46.66 251.443 45.13C250.633 43.6 250.228 41.56 250.228 39.01C250.228 36.4 250.693 34.225 251.623 32.485C252.553 30.745 253.798 29.44 255.358 28.57C256.918 27.67 258.613 27.22 260.443 27.22C261.433 27.22 262.408 27.325 263.368 27.535C264.358 27.745 265.213 28.045 265.933 28.435V18.67H274.393V49H267.058L266.653 47.335C265.813 47.995 264.868 48.52 263.818 48.91C262.798 49.27 261.583 49.45 260.173 49.45ZM262.603 43.33C263.893 43.33 265.003 42.895 265.933 42.025V34.465C265.093 33.715 263.983 33.34 262.603 33.34C261.493 33.34 260.593 33.835 259.903 34.825C259.213 35.815 258.868 37.225 258.868 39.055C258.868 40.855 259.168 42.025 259.768 42.565C260.368 43.075 261.313 43.33 262.603 43.33ZM289.768 49.45C287.278 49.45 285.073 49.045 283.153 48.235C281.263 47.395 279.778 46.15 278.698 44.5C277.648 42.85 277.123 40.81 277.123 38.38C277.123 34.99 278.083 32.29 280.003 30.28C281.923 28.24 284.788 27.22 288.598 27.22C292.078 27.22 294.793 28.105 296.743 29.875C298.723 31.645 299.713 34.06 299.713 37.12V40.855H284.908C285.298 41.995 286.063 42.805 287.203 43.285C288.343 43.765 289.888 44.005 291.838 44.005C293.068 44.005 294.298 43.9 295.528 43.69C296.788 43.45 297.793 43.18 298.543 42.88V47.965C296.443 48.955 293.518 49.45 289.768 49.45ZM284.908 36.265H292.423V35.5C292.423 34.66 292.153 33.97 291.613 33.43C291.103 32.89 290.188 32.62 288.868 32.62C287.398 32.62 286.363 32.935 285.763 33.565C285.193 34.165 284.908 35.065 284.908 36.265Z" fill="#FEFEFE"/>
<path d="M202.849 95V72.32H194.704V66.02H219.454V72.32H211.309V95H202.849ZM229.866 95.45C225.606 95.45 222.456 94.505 220.416 92.615C218.406 90.725 217.401 87.965 217.401 84.335C217.401 80.735 218.421 77.99 220.461 76.1C222.501 74.18 225.636 73.22 229.866 73.22C234.126 73.22 237.276 74.18 239.316 76.1C241.386 77.99 242.421 80.735 242.421 84.335C242.421 87.965 241.401 90.725 239.361 92.615C237.321 94.505 234.156 95.45 229.866 95.45ZM229.866 89.285C231.246 89.285 232.236 88.895 232.836 88.115C233.466 87.335 233.781 86.075 233.781 84.335C233.781 82.625 233.466 81.38 232.836 80.6C232.236 79.79 231.246 79.385 229.866 79.385C228.516 79.385 227.541 79.79 226.941 80.6C226.341 81.38 226.041 82.625 226.041 84.335C226.041 86.075 226.341 87.335 226.941 88.115C227.541 88.895 228.516 89.285 229.866 89.285ZM254.951 102.92C253.901 102.92 252.761 102.875 251.531 102.785C250.301 102.725 249.131 102.605 248.021 102.425C246.941 102.245 246.041 102.035 245.321 101.795V96.395C246.131 96.665 247.061 96.89 248.111 97.07C249.191 97.25 250.286 97.385 251.396 97.475C252.506 97.565 253.526 97.61 254.456 97.61C256.046 97.61 257.291 97.52 258.191 97.34C259.121 97.19 259.586 96.905 259.586 96.485C259.586 96.125 259.436 95.885 259.136 95.765C258.836 95.675 258.266 95.63 257.426 95.63H251.801C249.611 95.63 247.916 95.285 246.716 94.595C245.546 93.875 244.961 92.81 244.961 91.4C244.961 89.42 246.056 88.04 248.246 87.26C247.016 86.63 246.116 85.835 245.546 84.875C244.976 83.915 244.691 82.7 244.691 81.23C244.691 78.47 245.621 76.445 247.481 75.155C249.371 73.865 252.086 73.22 255.626 73.22C256.376 73.22 257.216 73.28 258.146 73.4C259.076 73.49 259.751 73.58 260.171 73.67H268.541L268.361 78.8H265.526C266.066 79.49 266.336 80.33 266.336 81.32C266.336 83.51 265.691 85.25 264.401 86.54C263.141 87.8 261.146 88.43 258.416 88.43C258.026 88.43 257.606 88.415 257.156 88.385C256.706 88.325 256.286 88.28 255.896 88.25C255.236 88.31 254.666 88.43 254.186 88.61C253.706 88.79 253.466 89.09 253.466 89.51C253.466 89.81 253.601 90.02 253.871 90.14C254.141 90.23 254.516 90.275 254.996 90.275H259.901C262.091 90.275 263.816 90.785 265.076 91.805C266.336 92.825 266.966 94.325 266.966 96.305C266.966 98.405 265.991 100.025 264.041 101.165C262.091 102.335 259.061 102.92 254.951 102.92ZM255.671 83.795C256.991 83.795 257.906 83.57 258.416 83.12C258.926 82.67 259.181 81.92 259.181 80.87C259.181 79.82 258.926 79.055 258.416 78.575C257.906 78.095 256.991 77.855 255.671 77.855C254.441 77.855 253.541 78.095 252.971 78.575C252.431 79.025 252.161 79.79 252.161 80.87C252.161 81.89 252.416 82.64 252.926 83.12C253.466 83.57 254.381 83.795 255.671 83.795ZM282.517 95.45C280.027 95.45 277.822 95.045 275.902 94.235C274.012 93.395 272.527 92.15 271.447 90.5C270.397 88.85 269.872 86.81 269.872 84.38C269.872 80.99 270.832 78.29 272.752 76.28C274.672 74.24 277.537 73.22 281.347 73.22C284.827 73.22 287.542 74.105 289.492 75.875C291.472 77.645 292.462 80.06 292.462 83.12V86.855H277.657C278.047 87.995 278.812 88.805 279.952 89.285C281.092 89.765 282.637 90.005 284.587 90.005C285.817 90.005 287.047 89.9 288.277 89.69C289.537 89.45 290.542 89.18 291.292 88.88V93.965C289.192 94.955 286.267 95.45 282.517 95.45ZM277.657 82.265H285.172V81.5C285.172 80.66 284.902 79.97 284.362 79.43C283.852 78.89 282.937 78.62 281.617 78.62C280.147 78.62 279.112 78.935 278.512 79.565C277.942 80.165 277.657 81.065 277.657 82.265ZM304.736 95.45C301.886 95.45 299.816 94.73 298.526 93.29C297.236 91.85 296.591 89.9 296.591 87.44V79.925H293.801V73.67H296.591V69.305L305.051 67.28V73.67H309.956L309.641 79.925H305.051V86.81C305.051 87.71 305.276 88.355 305.726 88.745C306.176 89.105 306.866 89.285 307.796 89.285C308.666 89.285 309.551 89.135 310.451 88.835V94.46C308.861 95.12 306.956 95.45 304.736 95.45ZM312.696 95V64.67H321.156V74.975C321.906 74.465 322.836 74.045 323.946 73.715C325.086 73.385 326.301 73.22 327.591 73.22C330.531 73.22 332.676 73.91 334.026 75.29C335.376 76.64 336.051 78.74 336.051 81.59V95H327.546V82.22C327.546 81.23 327.336 80.525 326.916 80.105C326.526 79.685 325.806 79.475 324.756 79.475C324.126 79.475 323.466 79.625 322.776 79.925C322.116 80.225 321.576 80.585 321.156 81.005V95H312.696ZM351.335 95.45C348.845 95.45 346.64 95.045 344.72 94.235C342.83 93.395 341.345 92.15 340.265 90.5C339.215 88.85 338.69 86.81 338.69 84.38C338.69 80.99 339.65 78.29 341.57 76.28C343.49 74.24 346.355 73.22 350.165 73.22C353.645 73.22 356.36 74.105 358.31 75.875C360.29 77.645 361.28 80.06 361.28 83.12V86.855H346.475C346.865 87.995 347.63 88.805 348.77 89.285C349.91 89.765 351.455 90.005 353.405 90.005C354.635 90.005 355.865 89.9 357.095 89.69C358.355 89.45 359.36 89.18 360.11 88.88V93.965C358.01 94.955 355.085 95.45 351.335 95.45ZM346.475 82.265H353.99V81.5C353.99 80.66 353.72 79.97 353.18 79.43C352.67 78.89 351.755 78.62 350.435 78.62C348.965 78.62 347.93 78.935 347.33 79.565C346.76 80.165 346.475 81.065 346.475 82.265ZM364.419 95V73.67H372.564L372.789 75.38C373.659 74.87 374.769 74.405 376.119 73.985C377.469 73.565 378.834 73.31 380.214 73.22V79.52C379.434 79.58 378.579 79.685 377.649 79.835C376.749 79.985 375.864 80.18 374.994 80.42C374.154 80.63 373.449 80.87 372.879 81.14V95H364.419Z" fill="#FEFEFE"/>
</svg>
