<svg width="76" height="50" viewBox="0 0 76 50" fill="none" xmlns="http://www.w3.org/2000/svg">
<path d="M37.9461 0C35.7581 17.721 36.9926 28.5969 37.9461 40.0348C42.625 40.4735 47.3029 40.771 51.969 40.9071C52.1958 41.1673 52.1767 41.5466 51.7641 42.0955C51.7145 42.1615 51.6593 42.2266 51.6088 42.2931C50.8324 43.3166 50.3691 44.5038 50.3691 45.5446C50.3691 48.0053 52.9585 50 56.1527 50C59.3468 50 61.9363 48.0053 61.9363 45.5446C61.9363 44.3914 61.3443 43.1644 60.3973 42.1364C60.3473 42.0821 60.2911 42.0297 60.2441 41.9749C59.8961 41.5694 59.7113 41.2384 59.6955 40.9804C65.1534 40.9201 70.5871 40.6179 75.9791 40.0348C75.592 35.1286 75.2819 30.1944 75.1275 25.2037C75.0752 25.2878 75.055 25.2569 75.0945 25.0618C75.1044 25.0128 75.111 24.9688 75.1196 24.9217C75.1053 24.4397 75.0924 23.957 75.081 23.4739C74.8436 23.0202 74.2657 23.0312 73.3379 23.4753C73.2759 23.505 73.2169 23.5404 73.1553 23.5721C71.9916 24.171 70.6104 24.5307 69.3205 24.5019C66.5682 24.4404 64.3752 22.6829 64.4223 20.5761C64.4693 18.4694 66.7386 16.8113 69.491 16.8728C70.6552 16.8988 71.9762 17.234 73.1096 17.7716C73.1833 17.8066 73.2551 17.8447 73.3282 17.8791C74.2622 18.3183 74.761 18.1333 75.0228 17.6842C75.0466 11.8968 75.3256 6.01672 75.9791 0.00034572L37.9461 0Z" fill="#FFBF1D"/>
<path d="M0 0V40.0348C5.27727 40.5296 10.5382 40.8434 15.7802 40.9494C16.3683 41.1221 16.6818 41.5192 16.2075 42.3782C16.1748 42.4375 16.1382 42.4961 16.1049 42.5559C15.5927 43.4751 15.287 44.5412 15.287 45.4761C15.287 47.6862 16.9953 49.4776 19.1026 49.4776C21.2099 49.4776 22.9182 47.6862 22.9182 45.4761C22.9182 44.4404 22.5277 43.3383 21.903 42.415C21.8699 42.3662 21.8327 42.3193 21.8017 42.2701C21.4086 41.6464 21.3314 41.2186 21.5889 40.9814C27.0648 40.924 32.5184 40.6218 37.9462 40.0348C37.5257 34.7062 37.1992 29.3433 37.0612 23.912C37.2921 23.887 37.5832 23.9685 37.9493 24.1926C38.0151 24.2329 38.0797 24.2777 38.146 24.3187C39.1653 24.9485 40.3501 25.3275 41.3909 25.3315C43.8516 25.342 45.86 23.2645 45.8769 20.6915C45.8939 18.1185 43.9128 16.0242 41.4522 16.0136C40.299 16.009 39.069 16.4801 38.0361 17.2385C37.9815 17.2787 37.9289 17.3238 37.8739 17.3615C37.5236 17.6011 37.229 17.7431 36.9892 17.7857C37.0101 11.9655 37.2888 6.05168 37.9462 0H0Z" fill="#58B9FF"/>
<path d="M21.7311 35.2717C16.4774 35.2717 12.4696 33.9808 9.70761 31.3989C6.94567 28.8171 5.5647 25.1695 5.5647 20.4562C5.5647 15.5928 6.91565 11.8702 9.61755 9.28837C12.3195 6.67653 16.3423 5.37061 21.6861 5.37061C23.4873 5.37061 25.0934 5.5057 26.5044 5.7759C27.9155 6.04609 29.2664 6.42136 30.5573 6.90169V14.2869C27.9755 13.1461 25.2136 12.5757 22.2715 12.5757C19.5396 12.5757 17.5131 13.2061 16.1922 14.467C14.8712 15.6979 14.2108 17.6943 14.2108 20.4562C14.2108 23.1581 14.9013 25.1096 16.2822 26.3104C17.6933 27.4812 19.7197 28.0666 22.3615 28.0666C23.8025 28.0666 25.1985 27.9315 26.5495 27.6613C27.9304 27.3911 29.2964 26.9708 30.6474 26.4004V33.8307C29.3565 34.281 27.9905 34.6262 26.5495 34.8664C25.1385 35.1366 23.5324 35.2717 21.7311 35.2717Z" fill="#FEFEFE"/>
<path d="M51.6448 35.4216V12.0486H43.251V5.55615H68.7572V12.0486H60.3633V35.4216H51.6448Z" fill="#FEFEFE"/>
</svg>
